<svg width="20" height="20" viewBox="0 0 20 20" fill="none" xmlns="http://www.w3.org/2000/svg">
<g clip-path="url(#clip0_4_30)">
<rect width="20" height="20" fill="black"/>
<path fill-rule="evenodd" clip-rule="evenodd" d="M7.42307 2.33449C7.73555 2.02191 8.15941 1.84626 8.6014 1.84616H16.2447C16.6867 1.84626 17.1106 2.02191 17.4231 2.33449L19.4347 4.34616C19.7473 4.65865 19.923 5.0825 19.9231 5.52449V15.1795C19.9231 15.8425 19.6597 16.4784 19.1908 16.9473C18.722 17.4161 18.0861 17.6795 17.4231 17.6795H7.42307C6.76002 17.6795 6.12414 17.4161 5.6553 16.9473C5.18646 16.4784 4.92307 15.8425 4.92307 15.1795V5.52449C4.92316 5.0825 5.09882 4.65865 5.4114 4.34616L7.42307 2.33449ZM16.2447 3.51283H8.6014L6.93473 5.17949H17.9114L16.2447 3.51283ZM10.7564 9.34616C10.7564 9.12515 10.6686 8.91319 10.5123 8.75691C10.356 8.60063 10.1441 8.51283 9.92307 8.51283C9.70205 8.51283 9.49009 8.60063 9.33381 8.75691C9.17753 8.91319 9.08973 9.12515 9.08973 9.34616C9.08973 10.2302 9.44092 11.0781 10.066 11.7032C10.6912 12.3283 11.539 12.6795 12.4231 12.6795C13.3071 12.6795 14.155 12.3283 14.7801 11.7032C15.4052 11.0781 15.7564 10.2302 15.7564 9.34616C15.7564 9.12515 15.6686 8.91319 15.5123 8.75691C15.356 8.60063 15.1441 8.51283 14.9231 8.51283C14.7021 8.51283 14.4901 8.60063 14.3338 8.75691C14.1775 8.91319 14.0897 9.12515 14.0897 9.34616C14.0897 9.78819 13.9141 10.2121 13.6016 10.5247C13.289 10.8372 12.8651 11.0128 12.4231 11.0128C11.981 11.0128 11.5571 10.8372 11.2446 10.5247C10.932 10.2121 10.7564 9.78819 10.7564 9.34616Z" fill="white" fill-opacity="0.5"/>
</g>
<defs>
<clipPath id="clip0_4_30">
<rect width="20" height="20" fill="white"/>
</clipPath>
</defs>
</svg>
