<svg width="125" height="125" viewBox="0 0 125 125" fill="none" xmlns="http://www.w3.org/2000/svg">
<g clip-path="url(#clip0_2_8)">
<path d="M121.875 3.72011e-06C121.602 0.00424953 121.333 0.0641826 121.084 0.176131C120.835 0.288079 120.611 0.449685 120.427 0.651045L119.323 1.82292L117.234 2.77084C116.527 2.55377 115.77 2.55377 115.062 2.77084C114.772 2.85576 114.463 2.85576 114.172 2.77084C113.208 2.4874 112.183 2.4874 111.219 2.77084C110.588 2.76169 109.962 2.87489 109.375 3.10417C108.495 3.45281 107.745 4.06614 107.229 4.85938L107.036 5.10938C106.031 5.29312 105.084 5.71154 104.271 6.33059C103.459 6.94964 102.804 7.75183 102.359 8.67188C102.195 9.04789 102.073 9.4409 101.995 9.84375C101.445 9.45067 100.857 9.11391 100.24 8.83855C98.4728 8.10438 96.5397 7.86436 94.6471 8.14418C92.7545 8.42399 90.9735 9.2131 89.4948 10.4271C87.8917 11.7448 86.7007 13.4952 86.0636 15.4702C85.4266 17.4452 85.3701 19.5616 85.901 21.5677C86.349 23.526 87.099 25.4063 88.1302 27.1354C90.7137 31.1784 93.7488 34.9142 97.1771 38.2708C99.9167 40.9375 102.365 43.8854 104.474 47.0729L104.75 47.5729C106.812 51.5 106.422 54.3958 103.609 56.151C102.707 56.7146 101.688 57.0671 100.63 57.1823C101.287 55.4369 101.561 53.5704 101.431 51.7099C101.302 49.8493 100.773 48.0386 99.8802 46.401C99.4371 45.6419 98.9132 44.933 98.3177 44.2865C94.2031 39.776 89.8281 40.776 88.099 41.9479C87.7201 42.1965 87.4367 42.5662 87.2948 42.9965C87.153 43.4268 87.161 43.8925 87.3177 44.3177L87.4583 44.6198C87.6562 44.9588 87.9492 45.2323 88.301 45.4063C88.6528 45.5804 89.048 45.6474 89.4375 45.599C90.4717 45.5896 91.4881 45.8681 92.3729 46.4034C93.2578 46.9388 93.9763 47.7098 94.4479 48.6302C95.6458 50.6302 95.6458 53.1198 94.4479 55.1198C93.4492 54.2653 92.5192 53.3337 91.6667 52.3333L91.3021 51.9688L91.1094 51.75C88.6038 48.5596 85.0699 46.3362 81.1094 45.4583C81.0423 42.7963 80.3157 40.1924 78.9948 37.8802C77.268 34.7962 74.8463 32.157 71.9219 30.1719C71.4749 29.8673 71.0106 29.5891 70.5312 29.3385C70.2585 26.064 68.9883 22.9518 66.892 20.4215C64.7957 17.8912 61.974 16.0645 58.8073 15.1875C55.9344 14.4139 52.8902 14.5714 50.1125 15.6374C47.3348 16.7034 44.9667 18.6229 43.3489 21.1198C43.0729 21.5677 42.7656 22.0104 42.4896 22.5104C40.1079 27.1001 38.2925 31.9621 37.0833 36.9896C36.1206 40.9114 34.7684 44.7272 33.0469 48.3802L32.7396 48.9375C31.6302 50.8854 30.625 51.974 29.5677 52.3073C29.2404 52.4146 28.8919 52.4403 28.5524 52.3822C28.2129 52.3241 27.8928 52.184 27.6198 51.974C26.5625 51.2448 26.8125 49.7708 27.6198 46.9063C27.8967 46.1416 28.1194 45.3584 28.2864 44.5625C28.4651 43.713 28.4633 42.8354 28.2811 41.9867C28.099 41.1379 27.7406 40.3368 27.2292 39.6354C26.7395 39.0067 26.1207 38.4902 25.4145 38.1209C24.7083 37.7517 23.9311 37.5382 23.1354 37.4948C20.5833 37.401 18.2396 38.901 17.2604 41.2552L16.8437 42.0365C16.5422 41.0936 15.9698 40.2603 15.1979 39.6406C14.73 39.3302 14.212 39.1028 13.6666 38.9688C12.8554 38.366 11.8884 38.0081 10.8802 37.9375C10.5659 37.9253 10.2604 37.83 9.99477 37.6615C9.3147 37.2557 8.52247 37.0786 7.73436 37.1563L6.03644 35.8229L5.28644 34.375C4.34894 32.5521 1.60415 33.1354 1.49998 35.1823C1.11225 35.3358 0.782028 35.6064 0.555273 35.9563C0.328517 36.3063 0.216513 36.7183 0.234851 37.1349C0.253188 37.5515 0.400955 37.952 0.657583 38.2807C0.914211 38.6094 1.26693 38.8499 1.66665 38.9688L3.25519 39.3594L5.03644 40.75C5.17246 41.4769 5.52038 42.1474 6.03644 42.6771C6.25831 42.8865 6.41402 43.1563 6.48436 43.4531C6.78644 44.4115 7.35415 45.2604 8.12498 45.901C8.49379 46.5969 9.03625 47.1856 9.6997 47.61C10.3632 48.0343 11.1251 48.2799 11.9114 48.3229H12.2239C13.5885 49.9531 15.6719 50.8073 17.7864 50.6094C18.1949 50.5601 18.5967 50.4658 18.9844 50.3281C18.9194 50.9863 18.9194 51.6492 18.9844 52.3073C19.2322 54.2087 19.9935 56.0067 21.1865 57.508C22.3794 59.0093 23.9589 60.1571 25.7552 60.8281C27.7096 61.5633 29.8348 61.7179 31.8751 61.2735C33.9153 60.829 35.7837 59.8044 37.2552 58.3229C38.6927 56.9688 39.9114 55.3958 40.875 53.6719C43.0729 49.4167 44.7812 44.9219 45.9687 40.276C46.901 36.5729 48.2239 32.9792 49.9271 29.5573L50.2292 29.0573C52.5937 25.2969 55.2969 24.1823 58.2239 25.7396C59.1614 26.2396 59.9844 26.9427 60.6198 27.8021C56.901 28.4271 53.6406 30.6302 51.6771 33.8438C51.2396 34.6042 50.8854 35.4063 50.6198 36.2396C48.7812 42.0573 51.8177 45.3438 53.7083 46.2656C54.5417 46.6667 55.5469 46.4479 56.1354 45.7344L56.3281 45.4583C56.5432 45.1312 56.6578 44.7483 56.6578 44.3568C56.6578 43.9653 56.5432 43.5823 56.3281 43.2552C55.781 42.3731 55.4911 41.3557 55.4911 40.3177C55.4911 39.2797 55.781 38.2623 56.3281 37.3802C57.4635 35.3802 59.5937 34.151 61.901 34.1771C61.6927 35.4531 61.3802 36.7083 60.9792 37.9375L60.8021 38.4219C59.2945 42.2916 59.1403 46.5576 60.3646 50.526C58.0738 51.8931 56.1587 53.8082 54.7917 56.099C52.9861 59.1316 51.9109 62.5427 51.651 66.0625C51.6198 66.6003 51.6198 67.1394 51.651 67.6771C48.9472 69.5496 46.883 72.2067 45.7374 75.2897C44.5918 78.3726 44.4198 81.7329 45.2448 84.9167C46.012 87.7903 47.6705 90.3467 49.982 92.2184C52.2936 94.09 55.139 95.1806 58.1094 95.3333H59.7239C64.8873 95.0972 70.0028 94.235 74.9583 92.7656C78.8387 91.6386 82.8221 90.9023 86.849 90.5677H87.4583C89.0417 90.375 90.6354 90.75 91.9688 91.625C92.5 92.0938 92.7604 92.7917 92.6667 93.4896C92.6667 94.7708 91.1615 95.3021 88.2135 95.9167C87.419 96.0649 86.6359 96.2686 85.8698 96.5261C85.0428 96.7936 84.2813 97.2318 83.6344 97.8123C82.9875 98.3927 82.4698 99.1026 82.1146 99.8958C81.8134 100.636 81.6748 101.431 81.708 102.229C81.7413 103.027 81.9456 103.809 82.3073 104.521C83.5 106.786 85.974 108.078 88.5208 107.75H89.3802C88.7261 108.484 88.3007 109.392 88.1562 110.365C88.0322 110.99 88.0322 111.635 88.1562 112.26C88.0573 113.214 88.224 114.177 88.6302 115.047C88.7864 115.327 88.8638 115.643 88.8542 115.964C88.8437 116.75 89.0885 117.526 89.5469 118.161L89.2448 120.307L88.3802 121.672C88.1788 122.041 88.0986 122.464 88.1509 122.881C88.2031 123.299 88.3852 123.689 88.6714 123.997C88.9576 124.305 89.3334 124.515 89.7457 124.598C90.1579 124.681 90.5858 124.632 90.9687 124.458C92.4635 125.839 94.8229 124.375 94.25 122.427L93.8073 120.865L94.1406 118.609C94.6973 118.124 95.0963 117.484 95.2865 116.771C95.3558 116.473 95.5095 116.202 95.7292 115.99C96.4115 115.255 96.8646 114.333 97.0417 113.344C97.3639 112.807 97.5797 112.212 97.6771 111.594C97.8273 110.641 97.6723 109.666 97.2344 108.807V108.531C97.9323 106.573 97.651 104.396 96.4844 102.682C96.24 102.356 95.9606 102.057 95.651 101.792C96.25 101.531 96.8281 101.219 97.3698 100.844C98.8922 99.682 100.07 98.1278 100.776 96.3479C101.483 94.5679 101.692 92.6292 101.38 90.7396C101.043 88.6789 100.117 86.7597 98.7144 85.2129C97.3117 83.6661 95.4919 82.5576 93.474 82.0208C91.5772 81.4537 89.6045 81.1814 87.625 81.2135C82.8385 81.4375 78.0937 82.2031 73.4792 83.4948C69.8489 84.526 66.1146 85.1719 62.3437 85.4167H61.7604C57.3333 85.25 55.0208 83.4688 54.9062 80.1563C54.8681 79.0939 55.0693 78.0366 55.4948 77.0625C57.8854 79.974 61.4219 81.6979 65.1823 81.7969C66.0677 81.7969 66.9427 81.7031 67.8021 81.5156C73.7604 80.2135 75.0937 75.9479 74.9583 73.8333C74.9269 73.3835 74.7449 72.9575 74.4415 72.6239C74.1382 72.2903 73.7312 72.0687 73.2864 71.9948H72.9531C72.5605 71.9964 72.177 72.1133 71.8501 72.3308C71.5233 72.5484 71.2675 72.8571 71.1146 73.2188C70.6011 74.1114 69.8504 74.8443 68.9458 75.3361C68.0411 75.828 67.0179 76.0596 65.9896 76.0052C64.8517 76.0091 63.7338 75.7058 62.7539 75.1274C61.774 74.549 60.9683 73.7169 60.4219 72.7188C61.6354 72.2604 62.8854 71.8958 64.151 71.6302H64.9583C68.9884 71.0457 72.6895 69.0773 75.4271 66.0625C77.7656 67.3281 80.375 68 83.0312 68.0104C86.5677 68.0625 90.0625 67.2917 93.25 65.7552C93.7396 65.526 94.2135 65.2656 94.6719 64.974C97.643 66.3793 100.974 66.8397 104.215 66.2931C107.456 65.7464 110.451 64.2189 112.797 61.9167C114.903 59.8161 116.288 57.1019 116.754 54.1643C117.22 51.2267 116.743 48.2169 115.391 45.5677C115.141 45.0879 114.88 44.6138 114.609 44.1458C111.828 39.7905 108.527 35.789 104.781 32.2292C101.864 29.436 99.2325 26.3582 96.9271 23.0417L96.5937 22.5104C95.6393 21.2388 95.1652 19.6707 95.2552 18.0833C95.2958 17.8081 95.3903 17.5436 95.5333 17.305C95.6763 17.0664 95.865 16.8583 96.0885 16.6927C97.2604 16.1354 98.401 17.1094 100.411 19.3385C100.932 19.9531 101.505 20.526 102.109 21.0625C103.411 22.2344 105.151 22.8021 106.901 22.625C107.69 22.5142 108.446 22.2356 109.118 21.8079C109.79 21.3803 110.362 20.8135 110.797 20.1458C112.167 17.9792 112.047 15.1927 110.484 13.1563L110.042 12.401C110.979 12.5833 111.943 12.5 112.828 12.151C113.447 11.9252 114.014 11.5762 114.495 11.125C115.422 10.7292 116.214 10.0833 116.786 9.25521C116.956 8.98329 117.195 8.76198 117.479 8.61459C118.168 8.22947 118.715 7.63461 119.042 6.91667L121.042 6.10938H122.656C123.016 6.12772 123.375 6.04858 123.694 5.88031C124.013 5.71204 124.281 5.46086 124.469 5.15322C124.657 4.84559 124.759 4.49289 124.763 4.13228C124.768 3.77167 124.675 3.41649 124.495 3.10417L124.469 3.15625C124.317 2.89002 124.107 2.66197 123.854 2.48959C123.928 2.1913 123.933 1.87992 123.868 1.57952C123.803 1.27912 123.669 0.99773 123.478 0.757101C123.287 0.516473 123.043 0.323048 122.765 0.191771C122.487 0.0604945 122.182 -0.00511797 121.875 3.72011e-06ZM121.906 2.07292L120.932 3.71355L122.74 4.16146L120.682 4.1875L117.255 5.55209C117.273 5.84508 117.196 6.13609 117.036 6.38191C116.876 6.62774 116.64 6.81527 116.365 6.91667C114.719 7.86459 115.333 8.58855 113.328 9.45313C112.911 9.6198 112.771 9.97917 111.995 10.3698C111.214 10.7604 109.875 10.2292 109.208 10.3698C108.901 10.4012 108.608 10.5176 108.362 10.706C108.117 10.8944 107.929 11.1474 107.819 11.4366C107.71 11.7258 107.683 12.0398 107.741 12.3435C107.8 12.6472 107.942 12.9286 108.151 13.1563C108.594 13.9063 110.682 16.6927 109.151 18.9479C108.846 19.4128 108.439 19.8029 107.962 20.0892C107.485 20.3755 106.95 20.5506 106.396 20.6017C105.842 20.6527 105.284 20.5783 104.763 20.384C104.241 20.1897 103.771 19.8804 103.385 19.4792C101.469 17.8906 98.875 13.1563 95.1719 14.9115C91.474 16.6615 92.5573 20.7865 94.7292 24.2656C99.3229 31.5052 108.818 38.1875 113.078 46.5417C118.286 56.9583 107.312 69.125 93.9479 62.7761C93.3037 63.2603 92.6128 63.679 91.8854 64.026C86.3177 66.8125 78.8021 67.0365 74.2031 63.4167C72.1458 68.3177 64.8802 69.5729 63.625 69.875C61.4219 70.2917 59.2917 71.0208 57.3021 72.0521C59.8385 80.4583 70.1667 79.625 72.4479 74.276C72.4479 74.276 72.7292 78.5677 66.8802 79.849C64.5077 80.2656 62.0641 79.902 59.9157 78.8128C57.7672 77.7235 56.0297 75.9673 54.9635 73.8073C53.2448 75.6094 52.3229 78.026 52.401 80.5156C52.5417 84.1094 54.7969 87.4792 61.2031 87.7292C69.8594 88.0625 83.3385 81.4635 92.526 84.2448C99.526 85.9896 101.5 95 95.8698 99.5052C93.9249 100.675 91.7283 101.362 89.4635 101.51C88.5156 101.563 88.4323 101.984 88.5208 102.266C88.6042 102.542 89.1302 102.542 89.9688 102.542C93 102.266 96.2604 104.016 94.8125 108.615C94.5885 109.255 95.6198 110.448 95.4219 111.396C95.1458 112.76 94.8385 112.453 94.8385 112.901C94.474 115.047 93.6146 114.599 93.0833 116.438C93.037 116.704 92.9112 116.95 92.7225 117.143C92.5338 117.336 92.291 117.468 92.026 117.521L91.5 121.198L92.0833 123.177L91.1354 121.505L89.8281 122.844L90.9427 121.115L91.4688 117.469C91.1994 117.357 90.9732 117.161 90.8232 116.911C90.6732 116.66 90.6074 116.369 90.6354 116.078C90.6354 114.182 89.6875 114.349 89.9688 112.172C90.1615 111.729 89.9688 111.953 89.9688 110.557C90.0521 109.589 91.1667 108.781 91.3854 108.057C91.6094 107.328 91.6667 105.714 89.4635 105.714C88.4323 105.745 85.0365 106.104 83.8958 103.682C83.6457 103.185 83.5107 102.638 83.5011 102.082C83.4914 101.526 83.6072 100.974 83.8399 100.469C84.0726 99.9634 84.4162 99.5169 84.8452 99.1625C85.2741 98.8082 85.7774 98.555 86.3177 98.4219C88.6615 97.5885 94.1146 97.7813 94.4219 93.6823C94.7292 89.5938 90.6354 88.4792 86.5417 88.6198C77.9114 88.9271 67.4635 93.8802 58 93.3229C46.3854 92.6562 41.3437 77.0052 53.5156 68.651C53.4347 67.8458 53.4347 67.0344 53.5156 66.2292C53.9844 59.8802 57.526 53.3646 62.9531 51.3854C59.8646 47.125 62.2864 40.1927 62.651 38.9688C63.3542 36.8854 63.7604 34.7083 63.8489 32.5104C55.2969 30.5833 50.8437 39.8594 54.3489 44.5104C54.3489 44.5104 50.4792 42.5885 52.2917 36.8802C53.1158 34.6282 54.6445 32.7023 56.6507 31.3886C58.6569 30.0749 61.0334 29.4436 63.4271 29.5885C63.0782 28.4052 62.4975 27.3031 61.7187 26.3463C60.9399 25.3896 59.9785 24.5973 58.8906 24.0156C55.7135 22.4531 51.6771 22.625 48.25 28.026C43.6302 35.375 42.7135 50.3854 35.6094 56.901C30.6042 62.1094 21.7969 59.3125 20.7135 52.1667C20.6686 49.902 21.165 47.6592 22.1614 45.625C22.5781 44.7604 22.3281 44.5104 21.9635 44.4271C21.5989 44.3438 21.3229 44.7917 20.9896 45.5417C20.7598 46.3247 20.3112 47.0259 19.6966 47.5628C19.082 48.0998 18.327 48.4501 17.5201 48.5726C16.7133 48.6951 15.8882 48.5848 15.142 48.2545C14.3957 47.9243 13.7592 47.3879 13.3073 46.7083C12.8021 46.1511 11.526 46.7396 10.5208 45.8229C9.52082 44.901 9.85415 44.8438 9.52082 44.5677C7.84894 43.1458 8.68748 42.6146 7.34373 41.2552C7.13077 41.0813 6.97653 40.846 6.90198 40.5814C6.82743 40.3167 6.83619 40.0355 6.92707 39.776L4.14582 37.5L2.1354 36.9896H4.11457L3.58332 35.1823L4.53123 37.0208L7.31248 39.3021C7.54659 39.1303 7.8294 39.0377 8.11977 39.0377C8.41015 39.0377 8.69296 39.1303 8.92707 39.3021C10.5989 40.25 10.9062 39.3542 12.6614 40.6667C13.026 40.9479 13.3541 40.8073 14.1354 41.3646C14.9166 41.9219 15.1094 43.3125 15.5833 43.8438C15.7632 44.1051 16.0138 44.3096 16.3059 44.4334C16.598 44.5572 16.9193 44.5951 17.2321 44.5426C17.545 44.4901 17.8363 44.3494 18.072 44.137C18.3077 43.9247 18.4778 43.6495 18.5625 43.3438C19.0104 42.3385 20.2917 39.3333 23.0729 39.5521C25.4531 39.6927 27.0833 42 26.4167 44.2917C25.9427 46.7396 23.0208 51.3594 26.4167 53.6719C29.8125 55.9844 32.8489 52.974 34.7708 49.3542C38.8073 41.75 39.7552 30.1979 44.9635 22.2604C51.3698 12.4323 67.4062 15.8854 68.5729 30.6146C69.3281 30.9271 70.0469 31.3229 70.7187 31.7865C76.0937 35.3802 79.8802 41.8073 78.8802 47.3802C84.1927 46.7083 88.875 52.3646 89.7656 53.3073C91.224 55.0156 92.9219 56.4948 94.8073 57.7083C100.875 51.3021 95 42.7865 89.2344 43.4792C89.2344 43.4792 92.8281 41.0833 96.8698 45.5104C98.4152 47.3572 99.3209 49.6547 99.4514 52.0592C99.5819 54.4637 98.9302 56.8458 97.5938 58.849C100.016 59.4375 102.573 59.026 104.693 57.7083C107.729 55.8698 109.51 52.1354 106.531 46.5729C102.49 38.8854 89.9323 30.5573 87.8437 21.1771C85.8437 14.2344 92.6771 8.01042 99.401 10.651C101.38 11.7448 103.073 13.3073 104.328 15.1875C104.859 15.9948 105.193 15.8854 105.443 15.6354C105.693 15.3854 105.417 14.9063 104.943 14.2396C104.38 13.6523 103.997 12.9173 103.836 12.1201C103.676 11.323 103.746 10.4967 104.037 9.7377C104.329 8.97869 104.83 8.31827 105.483 7.83352C106.136 7.34877 106.913 7.05968 107.724 7C108.479 6.85938 108.562 5.4948 109.901 5.05209C111.234 4.60417 111.099 4.96875 111.516 4.80209C113.573 4.02084 113.63 5.02605 115.469 4.55209C115.99 4.35417 116.573 4.5 116.943 4.91667L120.484 3.54688L121.906 2.07292ZM68.276 34.6771C67.9375 37.4375 66.4635 43.2552 67.3021 46.8229C68.1094 51.3594 71.5885 51.1094 72.8698 48.8802C73.7187 47.151 73.9114 45.1771 73.4271 43.3125C72.6556 40.0046 70.8626 37.0235 68.3021 34.7917L68.276 34.6771ZM69.6094 39.2188C70.4948 40.5833 71.1354 42.0885 71.5052 43.6771C71.8984 44.9655 71.8984 46.3418 71.5052 47.6302C71.0573 48.6042 69.776 48.6042 69.3021 46.4323C69.0937 44.026 69.1979 41.599 69.6146 39.2188H69.6094ZM78.6042 53.0781C75.9114 53.1406 75.1146 55.5365 76.1562 57.349C77.2344 58.9635 78.8698 60.1302 80.75 60.6302C84.0006 61.6104 87.4773 61.543 90.6875 60.4375C88.4896 58.7708 84.1771 54.5885 80.776 53.4479C80.0779 53.2044 79.3435 53.0812 78.6042 53.0833V53.0781ZM79.0625 55.1667C79.4189 55.1913 79.7707 55.2614 80.1094 55.375C82.3437 56.401 84.4323 57.7188 86.3177 59.2969C84.6279 59.4013 82.9328 59.2127 81.3073 58.7396C80.0134 58.3977 78.8498 57.6799 77.9635 56.6771C77.4687 55.9792 77.776 55.1146 79.0573 55.1667H79.0625ZM67.1614 56.1198C65.2259 56.2554 63.4051 57.0881 62.0364 58.4636C59.5333 60.7814 57.827 63.8312 57.1614 67.1771C59.9479 66.1198 65.5156 64.474 68.3021 62.1094C71.7552 59.0469 69.6094 56.0365 67.1562 56.1198H67.1614ZM67.0312 57.8958C68.0104 57.9375 68.4687 59.026 66.8229 60.4375C64.8309 61.805 62.6707 62.9096 60.3958 63.724C61.0937 62.2813 62.0364 60.974 63.1771 59.8542C64.1596 58.8407 65.4343 58.1597 66.8229 57.9063C66.892 57.8979 66.9616 57.8944 67.0312 57.8958Z" fill="#00E200"/>
</g>
<defs>
<clipPath id="clip0_2_8">
<rect width="125" height="125" fill="white"/>
</clipPath>
</defs>
</svg>
