<svg width="35" height="34" viewBox="0 0 35 34" fill="none" xmlns="http://www.w3.org/2000/svg">
<path d="M6.25743 9.50924L8.68041 10.7207C9.12642 10.9155 9.61175 11.0033 10.0977 10.977C10.5836 10.9507 11.0566 10.8111 11.479 10.5693L13.7687 9.07916C14.1627 8.79319 14.4834 8.41793 14.7045 7.98416C14.9256 7.55038 15.0409 7.07039 15.0407 6.58349L14.8954 3.85158C14.8424 3.36861 14.6766 2.90479 14.4115 2.49761C14.1463 2.09043 13.7892 1.75121 13.3689 1.50734L10.9459 0.265558C10.5008 0.0684478 10.0155 -0.0210811 9.52931 0.0041785C9.04314 0.0294381 8.56968 0.168759 8.14736 0.410937L5.8577 1.90107C5.46439 2.18777 5.14419 2.56315 4.92321 2.99681C4.70218 3.4304 4.58648 3.91009 4.58557 4.39675L4.73095 7.12866C4.77802 7.61823 4.94102 8.0895 5.20646 8.50346C5.4719 8.91749 5.8322 9.26228 6.25743 9.50924Z" fill="#2A2A2A"/>
<path d="M20.874 13.0468L18.451 11.805C18.0061 11.6103 17.5217 11.5226 17.0368 11.5489C16.5518 11.5752 16.0798 11.7148 15.6585 11.9565L13.3446 13.4466C12.9527 13.7346 12.6336 14.1103 12.4127 14.5437C12.1918 14.977 12.0753 15.4559 12.0725 15.9423L12.2179 18.6742C12.271 19.1572 12.4367 19.621 12.7018 20.0282C12.967 20.4354 13.3241 20.7746 13.7444 21.0184L16.1674 22.2299C16.6115 22.427 17.0958 22.5166 17.581 22.4913C18.0662 22.466 18.5386 22.3267 18.9598 22.0845L21.2556 20.5944C21.6477 20.3051 21.9668 19.9283 22.1876 19.494C22.4084 19.0598 22.5249 18.5799 22.5277 18.0927L22.3823 15.3668C22.3268 14.89 22.1617 14.4325 21.9001 14.0301C21.6384 13.6276 21.2872 13.2911 20.874 13.0468Z" fill="#2A2A2A"/>
<path d="M28.3491 24.5682L25.9261 23.3567C25.481 23.1596 24.9957 23.07 24.5095 23.0953C24.0234 23.1205 23.5499 23.2599 23.1276 23.5021L20.8379 24.9922C20.4453 25.2795 20.1256 25.6551 19.9047 26.0886C19.6837 26.522 19.5677 27.0014 19.5658 27.4879L19.7112 30.2198C19.7692 30.695 19.936 31.1505 20.1987 31.5507C20.4613 31.951 20.8127 32.2853 21.2256 32.5277L23.6486 33.7392C24.0945 33.934 24.5799 34.0217 25.0658 33.9954C25.5517 33.9691 26.0247 33.8295 26.4471 33.5878L28.7428 32.0976C29.1351 31.8103 29.4541 31.4346 29.674 31.001C29.8939 30.5674 30.0087 30.0881 30.0089 29.602L29.8817 26.9185C29.8294 26.4337 29.6633 25.9682 29.397 25.5597C29.1307 25.1513 28.7716 24.8115 28.3491 24.5682Z" fill="#2A2A2A"/>
<path d="M10.4977 17.7837L10.3826 15.6575C10.3854 15.1712 10.5019 14.6922 10.7228 14.2589C10.9437 13.8256 11.2628 13.4499 11.6547 13.1619L16.119 10.2603C16.5403 10.0186 17.0123 9.87901 17.4973 9.85272C17.9822 9.82643 18.4666 9.9142 18.9115 10.1089L20.8136 11.0781C21.2587 11.2752 21.744 11.3648 22.2302 11.3395C22.7164 11.3143 23.1898 11.1749 23.6121 10.9327L25.9018 9.43651C26.2948 9.14951 26.6147 8.77407 26.8356 8.34048C27.0566 7.90694 27.1725 7.4275 27.1739 6.94084L27.0285 4.21498C26.9764 3.73093 26.811 3.2659 26.5458 2.85763C26.2807 2.44929 25.9231 2.10917 25.502 1.86469L23.079 0.622908C22.6331 0.42816 22.1478 0.340388 21.6618 0.366677C21.1759 0.392966 20.7028 0.532591 20.2805 0.774344L17.9423 2.24025C17.5501 2.52762 17.2311 2.9033 17.0112 3.33689C16.7912 3.77049 16.6765 4.24975 16.6763 4.73592L16.7853 6.86209C16.7852 7.34832 16.6704 7.82759 16.4504 8.26118C16.2305 8.69478 15.9115 9.07046 15.5193 9.35776L11.055 12.2593C10.6327 12.5015 10.1593 12.6408 9.6731 12.6661C9.18687 12.6914 8.7016 12.6018 8.25644 12.4047L6.36046 11.4415C5.91529 11.2444 5.43003 11.1549 4.9438 11.1802C4.45763 11.2054 3.98423 11.3447 3.56191 11.5869L1.27219 13.077C0.878877 13.3637 0.558741 13.7391 0.337705 14.1728C0.116668 14.6064 0.00103069 15.0861 0.00012207 15.5727L0.1455 18.3046C0.197109 18.7889 0.362296 19.2541 0.627492 19.6625C0.892748 20.0709 1.25056 20.4109 1.67198 20.6549L4.09496 21.8664C4.54091 22.0612 5.02624 22.149 5.51217 22.1227C5.9981 22.0964 6.47118 21.9568 6.89351 21.715L9.18323 20.2248C9.57672 19.9478 9.90025 19.5831 10.1284 19.1593C10.3566 18.7357 10.483 18.2647 10.4977 17.7837Z" fill="#2A2A2A"/>
<path d="M34.4791 15.7364C34.4252 15.2528 34.2591 14.7886 33.9941 14.3805C33.729 13.9725 33.3724 13.6319 32.9527 13.3861L30.5297 12.1746C30.0836 11.9803 29.5983 11.8927 29.1125 11.919C28.6266 11.9453 28.1536 12.0847 27.7311 12.326L25.4413 13.8162C25.0488 14.1035 24.7292 14.479 24.5082 14.9125C24.2873 15.346 24.1712 15.8253 24.1693 16.3118L24.2844 18.4441C24.2825 18.9305 24.1665 19.4099 23.9455 19.8433C23.7246 20.2768 23.4049 20.6524 23.0123 20.9397L18.554 23.8352C18.1317 24.0769 17.6587 24.2166 17.1727 24.2429C16.6868 24.2691 16.2015 24.1814 15.7555 23.9866L13.8534 23.0174C13.4085 22.8227 12.9241 22.7349 12.4392 22.7612C11.9542 22.7876 11.4822 22.9271 11.0609 23.1689L8.74698 24.6529C8.35512 24.941 8.03602 25.3166 7.8151 25.75C7.59425 26.1832 7.47776 26.6622 7.47498 27.1486L7.62029 29.8805C7.67336 30.3635 7.83909 30.8273 8.10422 31.2345C8.36942 31.6417 8.72651 31.9809 9.14683 32.2248L11.5698 33.4666C12.0139 33.6636 12.4982 33.7531 12.9834 33.7279C13.4687 33.7026 13.941 33.5632 14.3623 33.3211L16.658 31.831C17.0496 31.5426 17.3685 31.1669 17.5893 30.7337C17.8102 30.3004 17.9268 29.8216 17.9302 29.3354L17.8151 27.2031C17.8164 26.7165 17.9323 26.237 18.1532 25.8035C18.3742 25.3699 18.6941 24.9945 19.0871 24.7074L23.5454 21.8059C23.9677 21.5638 24.4411 21.4244 24.9273 21.3991C25.4135 21.3739 25.8987 21.4634 26.3439 21.6605L28.2399 22.6237C28.685 22.8208 29.1704 22.9103 29.6565 22.8851C30.1427 22.8598 30.6161 22.7205 31.0384 22.4783L33.3343 20.9882C33.7261 20.7005 34.0448 20.3247 34.2647 19.8912C34.4846 19.4577 34.5996 18.9786 34.6002 18.4925L34.4791 15.7364Z" fill="#2A2A2A"/>
</svg>
